HIERARCHY
ROOT mixamorig:Hips
{
	OFFSET -0.000008 104.274872 1.554316
	CHANNELS 6 Xposition Yposition Zposition Xrotation Yrotation Zrotation
	JOINT mixamorig:Spine
	{
		OFFSET -0.000005 10.181595 0.131519
		CHANNELS 6 Xposition Yposition Zposition Xrotation Yrotation Zrotation
		JOINT mixamorig:Spine1
		{
			OFFSET -0.000000 9.893959 -1.470707
			CHANNELS 6 Xposition Yposition Zposition Xrotation Yrotation Zrotation
			JOINT mixamorig:Spine2
			{
				OFFSET -0.000000 9.220757 -1.370641
				CHANNELS 6 Xposition Yposition Zposition Xrotation Yrotation Zrotation
				JOINT mixamorig:Neck
				{
					OFFSET 0.000001 16.740417 -2.049036
					CHANNELS 6 Xposition Yposition Zposition Xrotation Yrotation Zrotation
					JOINT mixamorig:Head
					{
						OFFSET 0.000000 9.617874 1.685006
						CHANNELS 6 Xposition Yposition Zposition Xrotation Yrotation Zrotation
						JOINT mixamorig:HeadTop_End
						{
							OFFSET 0.000002 22.037354 7.501101
							CHANNELS 6 Xposition Yposition Zposition Xrotation Yrotation Zrotation
							End Site
							{
								OFFSET 0.000168 2310.654297 -282.823242
							}
						}
					}
				}
				JOINT mixamorig:RightShoulder
				{
					OFFSET -4.569970 11.014908 -2.160885
					CHANNELS 6 Xposition Yposition Zposition Xrotation Yrotation Zrotation
					JOINT mixamorig:RightArm
					{
						OFFSET -10.592851 -0.524811 -2.232101
						CHANNELS 6 Xposition Yposition Zposition Xrotation Yrotation Zrotation
						JOINT mixamorig:RightForeArm
						{
							OFFSET -27.841511 0.000031 -0.000004
							CHANNELS 6 Xposition Yposition Zposition Xrotation Yrotation Zrotation
							JOINT mixamorig:RightHand
							{
								OFFSET -28.328831 -0.000015 0.000015
								CHANNELS 6 Xposition Yposition Zposition Xrotation Yrotation Zrotation
								JOINT mixamorig:RightHandThumb1
								{
									OFFSET -2.464806 -1.573990 2.681852
									CHANNELS 6 Xposition Yposition Zposition Xrotation Yrotation Zrotation
									JOINT mixamorig:RightHandThumb2
									{
										OFFSET -3.215179 -1.872803 1.924282
										CHANNELS 6 Xposition Yposition Zposition Xrotation Yrotation Zrotation
										JOINT mixamorig:RightHandThumb3
										{
											OFFSET -2.654831 -1.527969 1.512609
											CHANNELS 6 Xposition Yposition Zposition Xrotation Yrotation Zrotation
											JOINT mixamorig:RightHandThumb4
											{
												OFFSET -2.018814 -1.152008 1.108052
												CHANNELS 6 Xposition Yposition Zposition Xrotation Yrotation Zrotation
												End Site
												{
													OFFSET -188.809540 -114.533607 132.431396
												}
											}
										}
									}
								}
								JOINT mixamorig:RightHandIndex1
								{
									OFFSET -9.108284 -0.517868 2.259835
									CHANNELS 6 Xposition Yposition Zposition Xrotation Yrotation Zrotation
									JOINT mixamorig:RightHandIndex2
									{
										OFFSET -3.699989 0.000000 0.001215
										CHANNELS 6 Xposition Yposition Zposition Xrotation Yrotation Zrotation
										JOINT mixamorig:RightHandIndex3
										{
											OFFSET -2.850006 0.000031 -0.000522
											CHANNELS 6 Xposition Yposition Zposition Xrotation Yrotation Zrotation
											JOINT mixamorig:RightHandIndex4
											{
												OFFSET -2.772186 -0.000015 -0.000020
												CHANNELS 6 Xposition Yposition Zposition Xrotation Yrotation Zrotation
												End Site
												{
													OFFSET -277.218445 0.000000 -0.050231
												}
											}
										}
									}
								}
								JOINT mixamorig:RightHandMiddle1
								{
									OFFSET -9.532516 -0.000031 -0.000023
									CHANNELS 6 Xposition Yposition Zposition Xrotation Yrotation Zrotation
									JOINT mixamorig:RightHandMiddle2
									{
										OFFSET -3.700005 -0.000015 0.003713
										CHANNELS 6 Xposition Yposition Zposition Xrotation Yrotation Zrotation
										JOINT mixamorig:RightHandMiddle3
										{
											OFFSET -2.949974 0.000015 -0.002054
											CHANNELS 6 Xposition Yposition Zposition Xrotation Yrotation Zrotation
											JOINT mixamorig:RightHandMiddle4
											{
												OFFSET -2.946640 0.000000 -0.000156
												CHANNELS 6 Xposition Yposition Zposition Xrotation Yrotation Zrotation
												End Site
												{
													OFFSET -294.664337 0.000000 -0.113670
												}
											}
										}
									}
								}
								JOINT mixamorig:RightHandRing1
								{
									OFFSET -9.103600 -0.043076 -1.865134
									CHANNELS 6 Xposition Yposition Zposition Xrotation Yrotation Zrotation
									JOINT mixamorig:RightHandRing2
									{
										OFFSET -3.379288 0.000000 -0.001055
										CHANNELS 6 Xposition Yposition Zposition Xrotation Yrotation Zrotation
										JOINT mixamorig:RightHandRing3
										{
											OFFSET -2.889687 -0.000015 0.000379
											CHANNELS 6 Xposition Yposition Zposition Xrotation Yrotation Zrotation
											JOINT mixamorig:RightHandRing4
											{
												OFFSET -2.638809 -0.000015 0.000941
												CHANNELS 6 Xposition Yposition Zposition Xrotation Yrotation Zrotation
												End Site
												{
													OFFSET -263.880371 0.000000 0.516020
												}
											}
										}
									}
								}
								JOINT mixamorig:RightHandPinky1
								{
									OFFSET -8.076683 -0.486710 -3.806280
									CHANNELS 6 Xposition Yposition Zposition Xrotation Yrotation Zrotation
									JOINT mixamorig:RightHandPinky2
									{
										OFFSET -3.600014 -0.000015 -0.003747
										CHANNELS 6 Xposition Yposition Zposition Xrotation Yrotation Zrotation
										JOINT mixamorig:RightHandPinky3
										{
											OFFSET -2.099983 0.000000 -0.005739
											CHANNELS 6 Xposition Yposition Zposition Xrotation Yrotation Zrotation
											JOINT mixamorig:RightHandPinky4
											{
												OFFSET -2.115768 -0.000031 -0.003680
												CHANNELS 6 Xposition Yposition Zposition Xrotation Yrotation Zrotation
												End Site
												{
													OFFSET -211.577087 0.000000 -0.350686
												}
											}
										}
									}
								}
							}
						}
					}
				}
				JOINT mixamorig:LeftShoulder
				{
					OFFSET 4.570447 11.014725 -2.160855
					CHANNELS 6 Xposition Yposition Zposition Xrotation Yrotation Zrotation
					JOINT mixamorig:LeftArm
					{
						OFFSET 10.592371 -0.524597 -2.232119
						CHANNELS 6 Xposition Yposition Zposition Xrotation Yrotation Zrotation
						JOINT mixamorig:LeftForeArm
						{
							OFFSET 27.841532 -0.000031 0.000026
							CHANNELS 6 Xposition Yposition Zposition Xrotation Yrotation Zrotation
							JOINT mixamorig:LeftHand
							{
								OFFSET 28.328846 -0.000061 0.000022
								CHANNELS 6 Xposition Yposition Zposition Xrotation Yrotation Zrotation
								JOINT mixamorig:LeftHandThumb1
								{
									OFFSET 2.466141 -1.576172 2.681732
									CHANNELS 6 Xposition Yposition Zposition Xrotation Yrotation Zrotation
									JOINT mixamorig:LeftHandThumb2
									{
										OFFSET 3.217812 -1.872070 1.916482
										CHANNELS 6 Xposition Yposition Zposition Xrotation Yrotation Zrotation
										JOINT mixamorig:LeftHandThumb3
										{
											OFFSET 2.656029 -1.528778 1.514513
											CHANNELS 6 Xposition Yposition Zposition Xrotation Yrotation Zrotation
											JOINT mixamorig:LeftHandThumb4
											{
												OFFSET 2.020889 -1.154053 1.115139
												CHANNELS 6 Xposition Yposition Zposition Xrotation Yrotation Zrotation
												End Site
												{
													OFFSET 190.885437 -115.081749 130.048782
												}
											}
										}
									}
								}
								JOINT mixamorig:LeftHandIndex1
								{
									OFFSET 9.109314 -0.518021 2.259871
									CHANNELS 6 Xposition Yposition Zposition Xrotation Yrotation Zrotation
									JOINT mixamorig:LeftHandIndex2
									{
										OFFSET 3.699989 0.000000 -0.000322
										CHANNELS 6 Xposition Yposition Zposition Xrotation Yrotation Zrotation
										JOINT mixamorig:LeftHandIndex3
										{
											OFFSET 2.850006 0.000000 0.000352
											CHANNELS 6 Xposition Yposition Zposition Xrotation Yrotation Zrotation
											JOINT mixamorig:LeftHandIndex4
											{
												OFFSET 2.774864 -0.000031 -0.000027
												CHANNELS 6 Xposition Yposition Zposition Xrotation Yrotation Zrotation
												End Site
												{
													OFFSET 277.486267 0.000000 -0.009857
												}
											}
										}
									}
								}
								JOINT mixamorig:LeftHandMiddle1
								{
									OFFSET 9.533394 0.000061 0.000044
									CHANNELS 6 Xposition Yposition Zposition Xrotation Yrotation Zrotation
									JOINT mixamorig:LeftHandMiddle2
									{
										OFFSET 3.699989 -0.000015 -0.000231
										CHANNELS 6 Xposition Yposition Zposition Xrotation Yrotation Zrotation
										JOINT mixamorig:LeftHandMiddle3
										{
											OFFSET 2.949997 -0.000015 -0.000059
											CHANNELS 6 Xposition Yposition Zposition Xrotation Yrotation Zrotation
											JOINT mixamorig:LeftHandMiddle4
											{
												OFFSET 2.952896 0.000031 0.000063
												CHANNELS 6 Xposition Yposition Zposition Xrotation Yrotation Zrotation
												End Site
												{
													OFFSET 295.289337 0.000000 0.022810
												}
											}
										}
									}
								}
								JOINT mixamorig:LeftHandRing1
								{
									OFFSET 9.104523 -0.042999 -1.865074
									CHANNELS 6 Xposition Yposition Zposition Xrotation Yrotation Zrotation
									JOINT mixamorig:LeftHandRing2
									{
										OFFSET 3.150009 -0.000031 0.000043
										CHANNELS 6 Xposition Yposition Zposition Xrotation Yrotation Zrotation
										JOINT mixamorig:LeftHandRing3
										{
											OFFSET 2.949982 -0.000015 0.000040
											CHANNELS 6 Xposition Yposition Zposition Xrotation Yrotation Zrotation
											JOINT mixamorig:LeftHandRing4
											{
												OFFSET 2.644348 0.000000 0.000057
												CHANNELS 6 Xposition Yposition Zposition Xrotation Yrotation Zrotation
												End Site
												{
													OFFSET 264.434631 0.000000 0.012105
												}
											}
										}
									}
								}
								JOINT mixamorig:LeftHandPinky1
								{
									OFFSET 8.077789 -0.486847 -3.806259
									CHANNELS 6 Xposition Yposition Zposition Xrotation Yrotation Zrotation
									JOINT mixamorig:LeftHandPinky2
									{
										OFFSET 3.599953 0.000031 0.014727
										CHANNELS 6 Xposition Yposition Zposition Xrotation Yrotation Zrotation
										JOINT mixamorig:LeftHandPinky3
										{
											OFFSET 2.100021 0.000015 0.007705
											CHANNELS 6 Xposition Yposition Zposition Xrotation Yrotation Zrotation
											JOINT mixamorig:LeftHandPinky4
											{
												OFFSET 2.125504 0.000031 0.007517
												CHANNELS 6 Xposition Yposition Zposition Xrotation Yrotation Zrotation
												End Site
												{
													OFFSET 212.550781 0.000000 0.625752
												}
											}
										}
									}
								}
							}
						}
					}
				}
			}
		}
	}
	JOINT mixamorig:RightUpLeg
	{
		OFFSET -8.207787 -6.751648 -1.599560
		CHANNELS 6 Xposition Yposition Zposition Xrotation Yrotation Zrotation
		JOINT mixamorig:RightLeg
		{
			OFFSET -0.000002 -44.370117 0.345942
			CHANNELS 6 Xposition Yposition Zposition Xrotation Yrotation Zrotation
			JOINT mixamorig:RightFoot
			{
				OFFSET 0.000003 -44.423679 -3.043532
				CHANNELS 6 Xposition Yposition Zposition Xrotation Yrotation Zrotation
				JOINT mixamorig:RightToeBase
				{
					OFFSET -0.000002 -8.728671 10.710558
					CHANNELS 6 Xposition Yposition Zposition Xrotation Yrotation Zrotation
					JOINT mixamorig:RightToe_End
					{
						OFFSET -0.000001 -0.000679 9.278119
						CHANNELS 6 Xposition Yposition Zposition Xrotation Yrotation Zrotation
						End Site
						{
							OFFSET 0.000000 -0.067690 927.812134
						}
					}
				}
			}
		}
	}
	JOINT mixamorig:LeftUpLeg
	{
		OFFSET 8.207793 -6.751686 -1.599556
		CHANNELS 6 Xposition Yposition Zposition Xrotation Yrotation Zrotation
		JOINT mixamorig:LeftLeg
		{
			OFFSET -0.000004 -44.370014 0.346954
			CHANNELS 6 Xposition Yposition Zposition Xrotation Yrotation Zrotation
			JOINT mixamorig:LeftFoot
			{
				OFFSET -0.000001 -44.423672 -3.044401
				CHANNELS 6 Xposition Yposition Zposition Xrotation Yrotation Zrotation
				JOINT mixamorig:LeftToeBase
				{
					OFFSET -0.000002 -8.728669 10.710558
					CHANNELS 6 Xposition Yposition Zposition Xrotation Yrotation Zrotation
					JOINT mixamorig:LeftToe_End
					{
						OFFSET -0.000003 -0.000679 9.278133
						CHANNELS 6 Xposition Yposition Zposition Xrotation Yrotation Zrotation
						End Site
						{
							OFFSET 0.000000 -0.068021 927.813477
						}
					}
				}
			}
		}
	}
}
MOTION
Frames: 3
Frame Time: 0.033333
0.000006 104.270477 1.554256 0.000010 0.000003 -0.000113 -0.000005 10.181587 0.131522 0.000001 -0.000003 0.000084 -0.000000 9.893967 -1.470711 0.000001 0.000000 -0.000000 -0.000000 9.220802 -1.370642 0.000000 -0.000000 -0.000000 0.000001 16.740433 -2.049030 0.000000 -0.000000 -0.000000 0.000000 9.617859 1.685014 0.000000 0.000000 0.000000 0.000002 22.037384 7.501101 0.000000 -0.000000 0.000000 -4.569968 11.014880 -2.160881 0.000008 0.000001 -0.000038 -10.592785 -0.524827 -2.231740 53.401260 70.434188 -39.092274 -27.841469 0.000011 0.000591 33.668885 105.631949 -43.489877 -28.328829 0.000021 0.000032 -0.000323 -0.000044 0.000007 -2.464473 -1.574173 2.682111 88.889236 -118.965571 135.283125 -3.214716 -1.872898 1.924651 176.115226 -56.596829 225.755647 -2.654413 -1.527851 1.513069 136.168714 -26.120219 169.576221 -2.018833 -1.152015 1.108070 -0.000005 0.000002 0.000002 -9.108078 -0.517901 2.260423 178.534506 5.876510 -152.873868 -3.700089 0.000312 0.001513 94.425589 14.592525 -15.725614 -2.850019 0.000186 -0.000524 27.354305 -0.965052 0.235037 -2.772171 -0.000015 -0.000019 0.000001 0.000005 -0.000003 -9.532520 0.000212 0.000495 159.925027 0.377384 -2.797332 -3.699955 0.000042 0.003667 7.481496 -10.507048 0.686692 -2.949974 -0.000064 -0.002038 -10.939019 -5.535344 -0.531300 -2.946626 0.000017 -0.000144 -0.000001 0.000001 0.000000 -9.103471 -0.042708 -1.864623 161.004361 -8.056205 -314.244764 -3.379106 -0.000046 -0.001095 -5.446534 -28.910951 -1.400490 -2.889668 -0.000050 0.000369 -12.092978 -9.659512 -1.017793 -2.638824 -0.000001 0.000940 0.000000 0.000001 -0.000003 -8.076260 -0.486538 -3.805825 170.736820 -27.092779 142.527087 -3.599769 -0.000090 -0.003766 -12.077176 -43.078317 -4.934392 -2.099855 -0.000048 -0.005790 -11.365145 -24.587742 -2.547374 -2.115781 -0.000017 -0.003675 -0.000002 0.000001 0.000002 4.570446 11.014691 -2.160851 -0.000018 0.000010 -0.000021 10.592518 -0.524553 -2.232375 56.376081 -69.205321 40.583632 27.841759 -0.000060 -0.000125 230.706715 -78.888057 239.880178 28.328831 -0.000028 0.000021 0.000022 -0.000089 0.000000 2.466111 -1.576187 2.681873 96.507445 120.316651 -141.404942 3.217709 -1.872069 1.916532 187.102391 59.296540 122.495632 2.655798 -1.528818 1.514628 145.773818 36.014464 172.524213 2.020886 -1.154069 1.115141 0.000001 0.000000 0.000004 9.109076 -0.517956 2.259960 3.237069 -170.559727 37.711554 3.700063 0.000078 -0.000420 78.089396 -27.671752 22.609067 2.850010 0.000008 0.000305 376.411998 -0.912245 0.131388 2.774893 -0.000014 -0.000023 0.000002 -0.000002 0.000001 9.533550 0.000285 0.000088 171.391863 -4.074940 50.484763 3.699996 0.000007 -0.000319 381.359705 8.650209 -1.634556 2.950004 -0.000024 -0.000059 356.626853 4.416361 0.129931 2.952863 -0.000016 0.000068 -0.000001 0.000000 -0.000002 9.104627 -0.042687 -1.865031 174.141683 -1.731254 32.938809 3.149985 -0.000000 -0.000038 365.619453 29.838313 -1.498686 2.949974 -0.000008 0.000025 354.722377 13.298511 0.615421 2.644323 0.000028 0.000073 -0.000003 0.000003 -0.000002 8.077602 -0.486879 -3.806192 179.379537 1.994147 551.371993 3.599926 -0.000003 0.014679 352.241680 45.851876 3.083263 2.099982 -0.000006 0.007671 356.163247 24.074195 0.718955 2.125506 -0.000001 0.007518 -0.000003 -0.000002 -0.000001 -8.207786 -6.751667 -1.599560 -0.077001 -0.000003 0.000080 -0.000002 -44.370110 0.345938 0.153719 -0.000000 -0.000000 0.000000 -44.423679 -3.043532 -0.076700 0.000000 -0.000002 -0.000006 -8.728667 10.710559 -0.000009 -0.000000 -0.000000 -0.000001 -0.000679 9.278123 0.000000 -0.000000 -0.000000 8.207792 -6.751710 -1.599556 -0.074518 -0.000003 0.000081 -0.000002 -44.370014 0.346960 0.148822 0.000002 0.000000 -0.000001 -44.423664 -3.044403 -0.074314 0.000000 -0.000002 -0.000004 -8.728671 10.710558 0.000007 -0.000000 -0.000000 0.000000 -0.000680 9.278137 -0.000000 0.000000 -0.000001 
0.000006 104.270477 1.554256 0.000010 0.000003 -0.000113 -0.000005 10.181587 0.131522 0.000001 -0.000003 0.000084 -0.000000 9.893967 -1.470711 0.000001 0.000000 -0.000000 -0.000000 9.220802 -1.370642 0.000000 -0.000000 -0.000000 0.000001 16.740433 -2.049030 0.000000 -0.000000 -0.000000 0.000000 9.617859 1.685014 0.000000 0.000000 0.000000 0.000002 22.037384 7.501101 0.000000 -0.000000 0.000000 -4.569968 11.014880 -2.160881 0.000008 0.000001 -0.000038 -10.592785 -0.524826 -2.231743 53.479463 69.816022 -38.740515 -27.841480 0.000013 0.000594 36.779087 105.564071 -47.278515 -28.328836 0.000037 0.000023 -0.000321 -0.000044 0.000007 -2.464491 -1.574187 2.682085 91.303244 -121.593036 137.996445 -3.214724 -1.872889 1.924644 182.075276 -57.095546 232.817762 -2.654402 -1.527836 1.513057 135.096538 -24.332952 167.252222 -2.018827 -1.151998 1.108061 -0.000003 -0.000003 0.000002 -9.108001 -0.517834 2.260405 180.319508 5.830767 -186.958711 -3.700052 0.000343 0.001531 104.005736 7.661315 -9.769752 -2.849994 0.000215 -0.000515 37.512925 -3.156305 1.072299 -2.772171 -0.000000 -0.000017 -0.000001 -0.000000 0.000000 -9.532506 0.000192 0.000498 163.330737 0.227084 -2.350819 -3.699929 0.000056 0.003657 8.218651 -14.640205 1.052884 -2.949954 -0.000022 -0.002037 -9.234708 -7.418089 -0.600818 -2.946625 0.000000 -0.000142 -0.000001 -0.000002 0.000000 -9.103450 -0.042713 -1.864637 163.866197 -7.871261 -308.113467 -3.379107 -0.000037 -0.001070 -5.985842 -30.686585 -1.638924 -2.889658 -0.000043 0.000361 -9.904735 -10.916696 -0.941350 -2.638803 -0.000020 0.000946 -0.000000 -0.000002 0.000004 -8.076271 -0.486529 -3.805808 172.398565 -22.076946 142.022268 -3.599756 -0.000106 -0.003763 -17.047177 -43.313791 -6.977375 -2.099866 -0.000055 -0.005783 -12.296037 -23.661102 -2.648015 -2.115770 -0.000045 -0.003675 -0.000003 0.000004 -0.000003 4.570446 11.014691 -2.160851 -0.000018 0.000010 -0.000021 10.592517 -0.524547 -2.232374 56.510157 -68.787744 40.397659 27.841759 -0.000061 -0.000113 231.819079 -78.880741 241.127917 28.328833 -0.000014 0.000018 0.000020 -0.000089 -0.000000 2.466115 -1.576211 2.681878 96.776814 121.710856 -141.994770 3.217729 -1.872085 1.916518 191.006131 59.268509 117.972229 2.655796 -1.528828 1.514633 149.725178 38.754241 166.384037 2.020898 -1.154034 1.115148 0.000001 -0.000003 0.000003 9.109056 -0.517936 2.259967 4.131120 -170.692588 47.735427 3.700050 0.000093 -0.000440 66.135615 -23.240837 15.264832 2.850010 0.000030 0.000299 374.249642 0.613139 -0.076770 2.774871 -0.000015 -0.000029 0.000002 0.000003 0.000000 9.533537 0.000232 0.000099 173.147358 -3.921192 59.376364 3.699983 -0.000006 -0.000317 379.025065 10.432856 -1.753069 2.950015 -0.000012 -0.000048 356.594286 5.338315 0.158633 2.952872 -0.000027 0.000067 -0.000002 0.000000 0.000001 9.104651 -0.042742 -1.865015 176.221326 -1.436600 41.677767 3.149981 0.000015 -0.000026 362.317876 29.937730 -0.620174 2.949974 0.000015 0.000021 354.945014 13.538010 0.600138 2.644314 0.000031 0.000065 -0.000002 -0.000002 -0.000001 8.077882 -0.486842 -3.806186 180.853970 2.536994 474.768690 3.599939 0.000005 0.014691 348.645203 43.526221 4.340932 2.099984 -0.000006 0.007682 356.255372 23.486106 0.681674 2.125503 -0.000015 0.007515 -0.000001 0.000000 0.000000 -8.207786 -6.751667 -1.599560 -0.077001 -0.000003 0.000080 -0.000002 -44.370110 0.345938 0.153719 -0.000000 -0.000000 0.000000 -44.423679 -3.043532 -0.076700 0.000000 -0.000002 -0.000006 -8.728667 10.710559 -0.000009 -0.000000 -0.000000 -0.000001 -0.000679 9.278123 0.000000 -0.000000 -0.000000 8.207792 -6.751710 -1.599556 -0.074518 -0.000003 0.000081 -0.000002 -44.370014 0.346960 0.148822 0.000002 0.000000 -0.000001 -44.423664 -3.044403 -0.074314 0.000000 -0.000002 -0.000004 -8.728671 10.710558 0.000007 -0.000000 -0.000000 0.000000 -0.000680 9.278137 -0.000000 0.000000 -0.000001 
0.000006 104.270477 1.554256 0.000010 0.000003 -0.000113 -0.000005 10.181587 0.131522 0.000001 -0.000003 0.000084 -0.000000 9.893967 -1.470711 0.000001 0.000000 -0.000000 -0.000000 9.220802 -1.370642 0.000000 -0.000000 -0.000000 0.000001 16.740433 -2.049030 0.000000 -0.000000 -0.000000 0.000000 9.617859 1.685014 0.000000 0.000000 0.000000 0.000002 22.037384 7.501101 0.000000 -0.000000 0.000000 -4.569968 11.014880 -2.160881 0.000008 0.000001 -0.000038 -10.592787 -0.524826 -2.231743 53.466226 69.955064 -38.822946 -27.841475 0.000017 0.000590 36.694044 105.511724 -47.134329 -28.328835 0.000021 0.000032 -0.000321 -0.000045 0.000006 -2.464468 -1.574169 2.682106 85.448153 -116.000135 131.500990 -3.214699 -1.872873 1.924671 170.489240 -54.542387 219.663009 -2.654442 -1.527772 1.513030 130.127289 -15.350877 154.198815 -2.018829 -1.151988 1.108064 -0.000004 0.000004 -0.000000 -9.108176 -0.517917 2.260403 175.726847 6.597215 -114.925801 -3.700054 0.000216 0.001287 41.776316 12.030349 -4.595791 -2.850013 0.000079 -0.000536 7.821128 -1.289645 0.088206 -2.772163 -0.000010 -0.000014 0.000002 0.000001 -0.000000 -9.532483 0.000246 0.000484 158.558347 -1.875239 9.329221 -3.699930 0.000040 0.003682 8.215363 -12.417223 0.892177 -2.949979 -0.000053 -0.002038 -14.512187 -3.996060 -0.509978 -2.946631 0.000005 -0.000141 0.000006 -0.000000 -0.000001 -9.103451 -0.042685 -1.864658 155.864944 -9.730552 -316.497115 -3.379098 -0.000056 -0.001107 -6.782022 -30.186154 -1.826143 -2.889670 -0.000079 0.000388 -18.698109 -8.951899 -1.466752 -2.638815 0.000015 0.000948 0.000003 -0.000000 -0.000001 -8.076309 -0.486412 -3.805834 162.361328 -24.371068 108.486859 -3.599754 -0.000104 -0.003742 -12.903267 -43.971791 -5.385317 -2.099857 -0.000060 -0.005784 -17.949647 -24.738865 -4.042311 -2.115757 -0.000052 -0.003681 -0.000000 0.000001 -0.000005 4.570446 11.014691 -2.160851 -0.000018 0.000010 -0.000021 10.592512 -0.524545 -2.232374 56.775971 -68.824449 40.629975 27.841759 -0.000064 -0.000114 231.234470 -78.433036 240.874189 28.328831 -0.000029 0.000020 0.000021 -0.000089 0.000000 2.466105 -1.576185 2.681866 91.803111 118.106989 -137.130883 3.217691 -1.872077 1.916545 185.026587 58.132607 124.224626 2.655783 -1.528812 1.514631 145.006364 34.314703 173.474347 2.020891 -1.154051 1.115143 0.000001 0.000002 0.000003 9.109160 -0.518027 2.259946 0.471978 -170.286984 5.438646 3.700043 0.000065 -0.000443 60.110487 -20.471421 11.941034 2.850026 0.000017 0.000301 376.917105 -1.143696 0.169913 2.774879 -0.000046 -0.000029 0.000000 -0.000000 0.000000 9.533527 0.000358 0.000075 168.223366 -4.381854 40.620904 3.699997 0.000001 -0.000316 378.797483 8.347587 -1.384321 2.949991 -0.000029 -0.000048 354.465207 3.874015 0.187128 2.952859 -0.000018 0.000045 0.000004 -0.000000 -0.000000 9.104592 -0.042649 -1.865045 170.725045 -1.262918 15.496793 3.149961 0.000009 -0.000041 364.069710 29.322596 -1.065497 2.949973 -0.000016 0.000023 353.867456 13.033041 0.700917 2.644327 0.000010 0.000034 -0.000004 0.000002 -0.000001 8.077508 -0.486604 -3.806209 177.236524 2.742289 630.562736 3.599911 -0.000021 0.014699 353.478737 42.195560 2.335044 2.099977 0.000015 0.007674 355.258165 24.095823 0.909960 2.125519 -0.000015 0.007511 -0.000001 0.000002 -0.000000 -8.207786 -6.751667 -1.599560 -0.077001 -0.000003 0.000080 -0.000002 -44.370110 0.345938 0.153719 -0.000000 -0.000000 0.000000 -44.423679 -3.043532 -0.076700 0.000000 -0.000002 -0.000006 -8.728667 10.710559 -0.000009 -0.000000 -0.000000 -0.000001 -0.000679 9.278123 0.000000 -0.000000 -0.000000 8.207792 -6.751710 -1.599556 -0.074518 -0.000003 0.000081 -0.000002 -44.370014 0.346960 0.148822 0.000002 0.000000 -0.000001 -44.423664 -3.044403 -0.074314 0.000000 -0.000002 -0.000004 -8.728671 10.710558 0.000007 -0.000000 -0.000000 0.000000 -0.000680 9.278137 -0.000000 0.000000 -0.000001 
